<svg xmlns="http://www.w3.org/2000/svg" width="30" height="25" fill="none"><path fill="#F5F5F5" stroke="#F1F5F8" stroke-width=".3" d="M12.036.993a1.35 1.35 0 0 0-.537 2.638l12.931 3.68.35.1-.318.175-23.058 12.78-.163.105a1.35 1.35 0 0 0 1.467 2.26L25.768 9.95l.317-.176-.1.348-3.73 12.907-.043.207a1.35 1.35 0 0 0 2.636.548L29.59 7.38l.003-.009v-.002c.016-.054.027-.11.036-.165v-.001l.003-.02a1.382 1.382 0 0 0 .01-.235 1.343 1.343 0 0 0-.021-.19 1.397 1.397 0 0 0-.046-.176V6.58a1.342 1.342 0 0 0-.043-.112l-.06-.12L12.036.993Zm0 0 .207.043 16.419 4.67a1.356 1.356 0 0 1 .34.15l.004.003c.019.01.038.023.058.037.03.022.06.044.088.068l.002.001a.97.97 0 0 1 .134.128l.002.002a.991.991 0 0 1 .111.14l.002.002c.015.021.03.044.044.067L12.037.994Z"/></svg>