<svg xmlns="http://www.w3.org/2000/svg" width="24" height="18" fill="none"><path fill="#fff" d="M12 1.872c2.785 0 5.289.961 6.975 2.691a7.467 7.467 0 0 1 3.777 1.635C20.86 2.223 16.942 0 12 0 7.125 0 3.18 2.22 1.266 6.183a7.469 7.469 0 0 1 3.433-1.57C6.354 2.808 8.961 1.871 12 1.871Z"/><path fill="#fff" d="M18 18a5.982 5.982 0 0 1-4.179-1.695l-.003-.003a2.42 2.42 0 0 0-.414-.25A3.245 3.245 0 0 0 12 15.75c-.62 0-1.093.155-1.402.302-.147.069-.286.153-.416.25l-.003.003A6 6 0 1 1 6 6h12a6 6 0 1 1 0 12Z"/></svg>