<svg xmlns="http://www.w3.org/2000/svg" width="20" height="20" fill="none"><path fill="#F1F5F8" d="M10 6.875A3.13 3.13 0 0 0 6.876 10 3.13 3.13 0 0 0 10 13.124 3.13 3.13 0 0 0 13.124 10 3.13 3.13 0 0 0 10 6.875ZM19.37 10c0-1.294.012-2.576-.06-3.868-.073-1.5-.415-2.83-1.512-3.928C16.698 1.105 15.37.765 13.87.692c-1.294-.072-2.576-.06-3.867-.06-1.294 0-2.576-.012-3.868.06-1.5.073-2.831.415-3.928 1.512-1.1 1.1-1.439 2.428-1.512 3.928C.623 7.426.635 8.708.635 10c0 1.29-.012 2.575.06 3.867.073 1.5.415 2.831 1.512 3.928 1.1 1.099 2.428 1.439 3.928 1.511 1.294.073 2.576.061 3.867.061 1.294 0 2.576.012 3.868-.06 1.5-.073 2.83-.415 3.928-1.512 1.099-1.1 1.439-2.428 1.512-3.928.075-1.292.06-2.574.06-3.867ZM10 14.807A4.8 4.8 0 0 1 5.193 10 4.8 4.8 0 0 1 10 5.192 4.8 4.8 0 0 1 14.807 10 4.8 4.8 0 0 1 10 14.807Zm5.004-8.689a1.121 1.121 0 0 1-1.123-1.122c0-.621.502-1.123 1.123-1.123a1.121 1.121 0 0 1 .43 2.16 1.121 1.121 0 0 1-.43.085Z"/></svg>