<svg xmlns="http://www.w3.org/2000/svg" width="24" height="20" fill="none"><path fill="#F1F5F8" d="M23.642 2.938c-.834.37-1.732.62-2.674.733a4.67 4.67 0 0 0 2.047-2.578 9.3 9.3 0 0 1-2.957 1.13 4.66 4.66 0 0 0-7.938 4.25 13.23 13.23 0 0 1-9.602-4.868 4.66 4.66 0 0 0 1.442 6.22 4.647 4.647 0 0 1-2.11-.583v.06a4.66 4.66 0 0 0 3.737 4.568 4.693 4.693 0 0 1-2.104.08 4.661 4.661 0 0 0 4.352 3.234 9.348 9.348 0 0 1-5.786 1.995 9.5 9.5 0 0 1-1.112-.065 13.176 13.176 0 0 0 7.14 2.093c8.57 0 13.254-7.098 13.254-13.254 0-.2-.005-.402-.014-.602a9.47 9.47 0 0 0 2.323-2.41l.002-.003Z"/></svg>